<?xml version="1.0" encoding="utf-8"?>
<svg viewBox="0 0 500 88" xmlns="http://www.w3.org/2000/svg">
  <g transform="matrix(1.1809760332107544, 0, 0, 1.1809760332107544, 7.288952827453613, 7.077644824981697)" fill-rule="" fill="#FFFFFF" style="">
    <g transform="matrix(1, 0, 0, 1, 0, 11)" fill-opacity="0">
      <path d="M45.63-32.7216L46.07-7.6194Q44.35-5.4162 41.82-3.7740000000000005 39.29-2.1317999999999997 36.4-1.0506 33.51 0.0408 30.47 0.5813999999999999 27.43 1.122 24.68 1.122L24.68 1.122Q19.37 1.122 14.9-0.8262 10.44-2.7642 7.2-6.1812 3.96-9.5982 2.12-14.229 0.29-18.8598 0.29-24.2046L0.29-24.2046Q0.29-28.2744 1.21-32.181000000000004 2.12-36.0876 3.83-39.535199999999996 5.53-42.993 7.98-45.8898 10.44-48.7866 13.55-50.8776 16.66-52.9686 20.36-54.1212 24.06-55.284000000000006 28.27-55.284000000000006L28.27-55.284000000000006Q29.85-55.284000000000006 31.64-55.1514 33.44-55.0188 35.21-54.702600000000004 36.99-54.3864 38.67-53.8254 40.36-53.2644 41.75-52.4484L41.75-52.4484 40.72-38.1786Q38.67-38.964000000000006 36.49-39.239399999999996 34.31-39.525 32.23-39.525L32.23-39.525Q29.3-39.525 26.75-38.607 24.21-37.689 22.32-35.9754 20.43-34.251599999999996 19.34-31.7832 18.24-29.325 18.24-26.2242L18.24-26.2242Q18.24-24.276 18.75-22.4706 19.26-20.655 20.31-19.2576 21.35-17.85 22.91-16.9932 24.46-16.136400000000002 26.51-16.136400000000002L26.51-16.136400000000002Q27.91-16.136400000000002 29.39-16.513800000000003 30.87-16.881 31.93-17.7786L31.93-17.7786 32.08-20.6958 23.29-20.8386 23.73-32.0484Q29.19-32.232 34.64-32.3646 40.1-32.4972 45.63-32.7216L45.63-32.7216ZM91.77-36.006L91.77-36.006Q91.77-33.099000000000004 91.28-30.7224 90.78-28.356 89.72-26.367 88.66-24.3882 86.98-22.7154 85.29-21.032400000000003 82.91-19.5024L82.91-19.5024 91.63-3.6618 75.15-0.3774 69.51-16.2894 64.97-16.136400000000002 64.31-0.6018 48.56-0.6018Q48.74-9.1188 48.91-17.5542 49.07-25.9998 49.29-34.5168L49.29-34.5168Q49.37-38.811 49.44-43.0338 49.51-47.2566 49.73-51.5508L49.73-51.5508Q52.29-52.519800000000004 54.79-53.1522 57.28-53.7846 59.78-54.1416 62.29-54.4986 64.87-54.6312 67.46-54.763799999999996 70.17-54.763799999999996L70.17-54.763799999999996Q74.34-54.763799999999996 78.24-53.580600000000004 82.14-52.4076 85.14-50.0514 88.15-47.705400000000004 89.96-44.1864 91.77-40.677600000000005 91.77-36.006ZM75.37-34.8126L75.37-34.8126Q75.37-36.3834 74.95-37.689 74.52-38.9946 73.7-39.9534 72.88-40.902 71.65-41.442600000000006 70.42-41.9832 68.77-41.9832L68.77-41.9832Q68.04-41.9832 67.35-41.891400000000004 66.65-41.7996 65.99-41.616L65.99-41.616 65.41-27.713400000000004 66.28-27.713400000000004Q67.86-27.713400000000004 69.49-28.1316 71.12-28.5396 72.42-29.3964 73.72-30.2532 74.54-31.599600000000002 75.37-32.946 75.37-34.8126ZM139.09-26.367L139.09-26.367Q139.09-22.9704 138.32-19.8186 137.55-16.656599999999997 136.1-13.8924 134.66-11.1282 132.59-8.8332 130.52-6.538200000000001 127.94-4.896 125.35-3.2538 122.31-2.3358 119.27-1.4178 115.87-1.4178L115.87-1.4178Q112.57-1.4178 109.59-2.2746 106.6-3.1416 104-4.691999999999999 101.4-6.2424 99.3-8.4252 97.19-10.608 95.71-13.2804 94.23-15.952800000000002 93.4-19.012800000000002 92.58-22.0728 92.58-25.398L92.58-25.398Q92.58-28.6518 93.35-31.773 94.12-34.884 95.56-37.648199999999996 97.01-40.4124 99.06-42.7278 101.11-45.0534 103.66-46.726200000000006 106.2-48.4092 109.17-49.34760000000001 112.13-50.2758 115.43-50.2758L115.43-50.2758Q120.74-50.2758 125.12-48.592800000000004 129.49-46.92 132.59-43.7988 135.68-40.677600000000005 137.38-36.2508 139.09-31.823999999999998 139.09-26.367ZM122.83-25.398L122.83-25.398Q122.83-27.009600000000002 122.37-28.5192 121.91-30.0288 121.03-31.212000000000003 120.15-32.385 118.85-33.1092 117.55-33.8436 115.87-33.8436L115.87-33.8436Q114.15-33.8436 112.79-33.211200000000005 111.44-32.5686 110.47-31.467000000000002 109.5-30.3654 108.98-28.8966 108.47-27.4176 108.47-25.7754L108.47-25.7754Q108.47-24.2046 108.91-22.6338 109.35-21.063 110.23-19.7982 111.11-18.5232 112.41-17.747999999999998 113.71-16.9626 115.43-16.9626L115.43-16.9626Q117.15-16.9626 118.52-17.646 119.9-18.3396 120.85-19.5126 121.8-20.6958 122.31-22.2258 122.83-23.7558 122.83-25.398ZM169.63-54.9882L188.09-53.4888 170.43-28.611 185.3-2.1624000000000003 168.31 0.8976000000000001 157.18-15.2388 156.59 1.6422 141.36 2.244 142.53-54.9882 159.59-54.009 158.28-37.128 169.63-54.9882ZM227.93-32.7216L228.37-7.6194Q226.65-5.4162 224.12-3.7740000000000005 221.59-2.1317999999999997 218.7-1.0506 215.81 0.0408 212.77 0.5813999999999999 209.73 1.122 206.98 1.122L206.98 1.122Q201.67 1.122 197.2-0.8262 192.74-2.7642 189.5-6.1812 186.25-9.5982 184.42-14.229 182.59-18.8598 182.59-24.2046L182.59-24.2046Q182.59-28.2744 183.51-32.181000000000004 184.42-36.0876 186.13-39.535199999999996 187.83-42.993 190.28-45.8898 192.74-48.7866 195.85-50.8776 198.96-52.9686 202.66-54.1212 206.36-55.284000000000006 210.57-55.284000000000006L210.57-55.284000000000006Q212.15-55.284000000000006 213.94-55.1514 215.73-55.0188 217.51-54.702600000000004 219.29-54.3864 220.97-53.8254 222.66-53.2644 224.05-52.4484L224.05-52.4484 223.02-38.1786Q220.97-38.964000000000006 218.79-39.239399999999996 216.61-39.525 214.53-39.525L214.53-39.525Q211.6-39.525 209.05-38.607 206.51-37.689 204.62-35.9754 202.73-34.251599999999996 201.64-31.7832 200.54-29.325 200.54-26.2242L200.54-26.2242Q200.54-24.276 201.05-22.4706 201.56-20.655 202.61-19.2576 203.65-17.85 205.21-16.9932 206.76-16.136400000000002 208.81-16.136400000000002L208.81-16.136400000000002Q210.21-16.136400000000002 211.69-16.513800000000003 213.17-16.881 214.23-17.7786L214.23-17.7786 214.38-20.6958 205.59-20.8386 206.03-32.0484Q211.49-32.232 216.94-32.3646 222.4-32.4972 227.93-32.7216L227.93-32.7216ZM263.05-53.4888L277.33-3.213 259.17-0.8262 256.97-9.2616 248.62-9.2616 246.79-0.8262 228.11-2.6928 242.69-52.4484 263.05-53.4888ZM250.16-20.6958L255.65-20.6958 252.87-33.6906 250.16-20.6958ZM315.01-54.4578L334.72-54.4578 331.35 0.3774 314.65 1.122 314.79-27.795 307.25-4.477799999999999 300.81-4.477799999999999 295.02-25.3266 294.95-1.122 278.03-0.6018 278.76-52.224000000000004 297.58-52.9686 305.05-28.2438 315.01-54.4578ZM338.31-53.866200000000006L372.07-53.866200000000006Q371.85-50.3574 371.67-46.92 371.48-43.482600000000005 371.19-39.9636L371.19-39.9636 355.66-39.147600000000004 355.3-34.4352 366.21-34.4352 365.41-22.8582 354.42-22.491 354.05-17.034 363.13-17.034 369.58-17.034Q369.36-12.9234 369.12-8.873999999999999 368.88-4.8144 368.7-0.7446L368.7-0.7446 337.13 0 338.31-53.866200000000006ZM410.82-19.869600000000002L410.82-19.869600000000002Q410.82-14.759400000000001 409.08-10.9242 407.34-7.0992 404.32-4.5594 401.29-2.0196 397.25-0.7446 393.2 0.5202 388.55 0.5202L388.55 0.5202Q386.76 0.5202 384.61 0.0408 382.47-0.44880000000000003 380.27-1.1729999999999998 378.08-1.9074000000000002 376.04-2.7438 374.01-3.5904000000000003 372.44-4.335L372.44-4.335 374.05-19.7268Q377.16-17.819399999999998 380.95-16.830000000000002 384.74-15.8406 388.4-15.8406L388.4-15.8406Q389.1-15.8406 390.09-15.8916 391.08-15.952800000000002 391.97-16.2282 392.87-16.513800000000003 393.49-17.0748 394.12-17.6358 394.12-18.676199999999998L394.12-18.676199999999998Q394.12-19.390200000000004 393.68-19.89 393.24-20.4 392.54-20.7162 391.85-21.032400000000003 390.97-21.195600000000002 390.09-21.369 389.25-21.4404 388.4-21.5118 387.67-21.5118 386.94-21.5118 386.5-21.5118L386.5-21.5118Q383.35-21.5118 380.77-22.6338 378.19-23.7558 376.34-25.755 374.49-27.7542 373.46-30.497999999999998 372.44-33.241800000000005 372.44-36.454800000000006L372.44-36.454800000000006Q372.44-40.861200000000004 374.18-44.3598 375.92-47.8482 378.83-50.296200000000006 381.74-52.7442 385.51-54.049800000000005 389.28-55.3554 393.31-55.3554L393.31-55.3554Q395.1-55.3554 397.01-55.2228 398.91-55.10040000000001 400.8-54.763799999999996 402.69-54.4272 404.48-53.896800000000006 406.27-53.376599999999996 407.89-52.5912L407.89-52.5912 406.49-37.4238Q404-38.2908 401.28-38.862 398.55-39.443400000000004 395.95-39.443400000000004L395.95-39.443400000000004Q395.47-39.443400000000004 394.72-39.423 393.97-39.412800000000004 393.15-39.3108 392.32-39.219 391.48-39.0354 390.64-38.851800000000004 389.98-38.525400000000005 389.32-38.2092 388.92-37.689 388.51-37.1688 388.55-36.454800000000006L388.55-36.454800000000006Q388.59-35.638799999999996 389.15-35.1288 389.72-34.629000000000005 390.62-34.3434 391.52-34.068 392.6-33.955799999999996 393.68-33.8436 394.74-33.8232 395.8-33.8028 396.72-33.8232 397.63-33.8436 398.22-33.7722L398.22-33.7722Q401.15-33.5784 403.49-32.4972 405.83-31.416 407.46-29.6208 409.09-27.8256 409.95-25.347 410.82-22.8582 410.82-19.869600000000002Z" transform="translate(-0.2900000214576721, 55.35540008544922)"/>
    </g>
    <g filter="url(#text-effect-sticker-shadow-YKoLi-UhqHnwmQwawdS7F)" stroke="#000" stroke-width="11" stroke-linecap="round" stroke-linejoin="round" paint-order="stroke">
      <path d="M45.63-32.7216L46.07-7.6194Q44.35-5.4162 41.82-3.7740000000000005 39.29-2.1317999999999997 36.4-1.0506 33.51 0.0408 30.47 0.5813999999999999 27.43 1.122 24.68 1.122L24.68 1.122Q19.37 1.122 14.9-0.8262 10.44-2.7642 7.2-6.1812 3.96-9.5982 2.12-14.229 0.29-18.8598 0.29-24.2046L0.29-24.2046Q0.29-28.2744 1.21-32.181000000000004 2.12-36.0876 3.83-39.535199999999996 5.53-42.993 7.98-45.8898 10.44-48.7866 13.55-50.8776 16.66-52.9686 20.36-54.1212 24.06-55.284000000000006 28.27-55.284000000000006L28.27-55.284000000000006Q29.85-55.284000000000006 31.64-55.1514 33.44-55.0188 35.21-54.702600000000004 36.99-54.3864 38.67-53.8254 40.36-53.2644 41.75-52.4484L41.75-52.4484 40.72-38.1786Q38.67-38.964000000000006 36.49-39.239399999999996 34.31-39.525 32.23-39.525L32.23-39.525Q29.3-39.525 26.75-38.607 24.21-37.689 22.32-35.9754 20.43-34.251599999999996 19.34-31.7832 18.24-29.325 18.24-26.2242L18.24-26.2242Q18.24-24.276 18.75-22.4706 19.26-20.655 20.31-19.2576 21.35-17.85 22.91-16.9932 24.46-16.136400000000002 26.51-16.136400000000002L26.51-16.136400000000002Q27.91-16.136400000000002 29.39-16.513800000000003 30.87-16.881 31.93-17.7786L31.93-17.7786 32.08-20.6958 23.29-20.8386 23.73-32.0484Q29.19-32.232 34.64-32.3646 40.1-32.4972 45.63-32.7216L45.63-32.7216ZM91.77-36.006L91.77-36.006Q91.77-33.099000000000004 91.28-30.7224 90.78-28.356 89.72-26.367 88.66-24.3882 86.98-22.7154 85.29-21.032400000000003 82.91-19.5024L82.91-19.5024 91.63-3.6618 75.15-0.3774 69.51-16.2894 64.97-16.136400000000002 64.31-0.6018 48.56-0.6018Q48.74-9.1188 48.91-17.5542 49.07-25.9998 49.29-34.5168L49.29-34.5168Q49.37-38.811 49.44-43.0338 49.51-47.2566 49.73-51.5508L49.73-51.5508Q52.29-52.519800000000004 54.79-53.1522 57.28-53.7846 59.78-54.1416 62.29-54.4986 64.87-54.6312 67.46-54.763799999999996 70.17-54.763799999999996L70.17-54.763799999999996Q74.34-54.763799999999996 78.24-53.580600000000004 82.14-52.4076 85.14-50.0514 88.15-47.705400000000004 89.96-44.1864 91.77-40.677600000000005 91.77-36.006ZM75.37-34.8126L75.37-34.8126Q75.37-36.3834 74.95-37.689 74.52-38.9946 73.7-39.9534 72.88-40.902 71.65-41.442600000000006 70.42-41.9832 68.77-41.9832L68.77-41.9832Q68.04-41.9832 67.35-41.891400000000004 66.65-41.7996 65.99-41.616L65.99-41.616 65.41-27.713400000000004 66.28-27.713400000000004Q67.86-27.713400000000004 69.49-28.1316 71.12-28.5396 72.42-29.3964 73.72-30.2532 74.54-31.599600000000002 75.37-32.946 75.37-34.8126ZM139.09-26.367L139.09-26.367Q139.09-22.9704 138.32-19.8186 137.55-16.656599999999997 136.1-13.8924 134.66-11.1282 132.59-8.8332 130.52-6.538200000000001 127.94-4.896 125.35-3.2538 122.31-2.3358 119.27-1.4178 115.87-1.4178L115.87-1.4178Q112.57-1.4178 109.59-2.2746 106.6-3.1416 104-4.691999999999999 101.4-6.2424 99.3-8.4252 97.19-10.608 95.71-13.2804 94.23-15.952800000000002 93.4-19.012800000000002 92.58-22.0728 92.58-25.398L92.58-25.398Q92.58-28.6518 93.35-31.773 94.12-34.884 95.56-37.648199999999996 97.01-40.4124 99.06-42.7278 101.11-45.0534 103.66-46.726200000000006 106.2-48.4092 109.17-49.34760000000001 112.13-50.2758 115.43-50.2758L115.43-50.2758Q120.74-50.2758 125.12-48.592800000000004 129.49-46.92 132.59-43.7988 135.68-40.677600000000005 137.38-36.2508 139.09-31.823999999999998 139.09-26.367ZM122.83-25.398L122.83-25.398Q122.83-27.009600000000002 122.37-28.5192 121.91-30.0288 121.03-31.212000000000003 120.15-32.385 118.85-33.1092 117.55-33.8436 115.87-33.8436L115.87-33.8436Q114.15-33.8436 112.79-33.211200000000005 111.44-32.5686 110.47-31.467000000000002 109.5-30.3654 108.98-28.8966 108.47-27.4176 108.47-25.7754L108.47-25.7754Q108.47-24.2046 108.91-22.6338 109.35-21.063 110.23-19.7982 111.11-18.5232 112.41-17.747999999999998 113.71-16.9626 115.43-16.9626L115.43-16.9626Q117.15-16.9626 118.52-17.646 119.9-18.3396 120.85-19.5126 121.8-20.6958 122.31-22.2258 122.83-23.7558 122.83-25.398ZM169.63-54.9882L188.09-53.4888 170.43-28.611 185.3-2.1624000000000003 168.31 0.8976000000000001 157.18-15.2388 156.59 1.6422 141.36 2.244 142.53-54.9882 159.59-54.009 158.28-37.128 169.63-54.9882ZM227.93-32.7216L228.37-7.6194Q226.65-5.4162 224.12-3.7740000000000005 221.59-2.1317999999999997 218.7-1.0506 215.81 0.0408 212.77 0.5813999999999999 209.73 1.122 206.98 1.122L206.98 1.122Q201.67 1.122 197.2-0.8262 192.74-2.7642 189.5-6.1812 186.25-9.5982 184.42-14.229 182.59-18.8598 182.59-24.2046L182.59-24.2046Q182.59-28.2744 183.51-32.181000000000004 184.42-36.0876 186.13-39.535199999999996 187.83-42.993 190.28-45.8898 192.74-48.7866 195.85-50.8776 198.96-52.9686 202.66-54.1212 206.36-55.284000000000006 210.57-55.284000000000006L210.57-55.284000000000006Q212.15-55.284000000000006 213.94-55.1514 215.73-55.0188 217.51-54.702600000000004 219.29-54.3864 220.97-53.8254 222.66-53.2644 224.05-52.4484L224.05-52.4484 223.02-38.1786Q220.97-38.964000000000006 218.79-39.239399999999996 216.61-39.525 214.53-39.525L214.53-39.525Q211.6-39.525 209.05-38.607 206.51-37.689 204.62-35.9754 202.73-34.251599999999996 201.64-31.7832 200.54-29.325 200.54-26.2242L200.54-26.2242Q200.54-24.276 201.05-22.4706 201.56-20.655 202.61-19.2576 203.65-17.85 205.21-16.9932 206.76-16.136400000000002 208.81-16.136400000000002L208.81-16.136400000000002Q210.21-16.136400000000002 211.69-16.513800000000003 213.17-16.881 214.23-17.7786L214.23-17.7786 214.38-20.6958 205.59-20.8386 206.03-32.0484Q211.49-32.232 216.94-32.3646 222.4-32.4972 227.93-32.7216L227.93-32.7216ZM263.05-53.4888L277.33-3.213 259.17-0.8262 256.97-9.2616 248.62-9.2616 246.79-0.8262 228.11-2.6928 242.69-52.4484 263.05-53.4888ZM250.16-20.6958L255.65-20.6958 252.87-33.6906 250.16-20.6958ZM315.01-54.4578L334.72-54.4578 331.35 0.3774 314.65 1.122 314.79-27.795 307.25-4.477799999999999 300.81-4.477799999999999 295.02-25.3266 294.95-1.122 278.03-0.6018 278.76-52.224000000000004 297.58-52.9686 305.05-28.2438 315.01-54.4578ZM338.31-53.866200000000006L372.07-53.866200000000006Q371.85-50.3574 371.67-46.92 371.48-43.482600000000005 371.19-39.9636L371.19-39.9636 355.66-39.147600000000004 355.3-34.4352 366.21-34.4352 365.41-22.8582 354.42-22.491 354.05-17.034 363.13-17.034 369.58-17.034Q369.36-12.9234 369.12-8.873999999999999 368.88-4.8144 368.7-0.7446L368.7-0.7446 337.13 0 338.31-53.866200000000006ZM410.82-19.869600000000002L410.82-19.869600000000002Q410.82-14.759400000000001 409.08-10.9242 407.34-7.0992 404.32-4.5594 401.29-2.0196 397.25-0.7446 393.2 0.5202 388.55 0.5202L388.55 0.5202Q386.76 0.5202 384.61 0.0408 382.47-0.44880000000000003 380.27-1.1729999999999998 378.08-1.9074000000000002 376.04-2.7438 374.01-3.5904000000000003 372.44-4.335L372.44-4.335 374.05-19.7268Q377.16-17.819399999999998 380.95-16.830000000000002 384.74-15.8406 388.4-15.8406L388.4-15.8406Q389.1-15.8406 390.09-15.8916 391.08-15.952800000000002 391.97-16.2282 392.87-16.513800000000003 393.49-17.0748 394.12-17.6358 394.12-18.676199999999998L394.12-18.676199999999998Q394.12-19.390200000000004 393.68-19.89 393.24-20.4 392.54-20.7162 391.85-21.032400000000003 390.97-21.195600000000002 390.09-21.369 389.25-21.4404 388.4-21.5118 387.67-21.5118 386.94-21.5118 386.5-21.5118L386.5-21.5118Q383.35-21.5118 380.77-22.6338 378.19-23.7558 376.34-25.755 374.49-27.7542 373.46-30.497999999999998 372.44-33.241800000000005 372.44-36.454800000000006L372.44-36.454800000000006Q372.44-40.861200000000004 374.18-44.3598 375.92-47.8482 378.83-50.296200000000006 381.74-52.7442 385.51-54.049800000000005 389.28-55.3554 393.31-55.3554L393.31-55.3554Q395.1-55.3554 397.01-55.2228 398.91-55.10040000000001 400.8-54.763799999999996 402.69-54.4272 404.48-53.896800000000006 406.27-53.376599999999996 407.89-52.5912L407.89-52.5912 406.49-37.4238Q404-38.2908 401.28-38.862 398.55-39.443400000000004 395.95-39.443400000000004L395.95-39.443400000000004Q395.47-39.443400000000004 394.72-39.423 393.97-39.412800000000004 393.15-39.3108 392.32-39.219 391.48-39.0354 390.64-38.851800000000004 389.98-38.525400000000005 389.32-38.2092 388.92-37.689 388.51-37.1688 388.55-36.454800000000006L388.55-36.454800000000006Q388.59-35.638799999999996 389.15-35.1288 389.72-34.629000000000005 390.62-34.3434 391.52-34.068 392.6-33.955799999999996 393.68-33.8436 394.74-33.8232 395.8-33.8028 396.72-33.8232 397.63-33.8436 398.22-33.7722L398.22-33.7722Q401.15-33.5784 403.49-32.4972 405.83-31.416 407.46-29.6208 409.09-27.8256 409.95-25.347 410.82-22.8582 410.82-19.869600000000002Z" transform="translate(-0.2900000214576721, 55.35540008544922)"/>
    </g>
    <g stroke="#fff" stroke-width="5" stroke-linecap="round" stroke-linejoin="round" paint-order="stroke">
      <path d="M45.63-32.7216L46.07-7.6194Q44.35-5.4162 41.82-3.7740000000000005 39.29-2.1317999999999997 36.4-1.0506 33.51 0.0408 30.47 0.5813999999999999 27.43 1.122 24.68 1.122L24.68 1.122Q19.37 1.122 14.9-0.8262 10.44-2.7642 7.2-6.1812 3.96-9.5982 2.12-14.229 0.29-18.8598 0.29-24.2046L0.29-24.2046Q0.29-28.2744 1.21-32.181000000000004 2.12-36.0876 3.83-39.535199999999996 5.53-42.993 7.98-45.8898 10.44-48.7866 13.55-50.8776 16.66-52.9686 20.36-54.1212 24.06-55.284000000000006 28.27-55.284000000000006L28.27-55.284000000000006Q29.85-55.284000000000006 31.64-55.1514 33.44-55.0188 35.21-54.702600000000004 36.99-54.3864 38.67-53.8254 40.36-53.2644 41.75-52.4484L41.75-52.4484 40.72-38.1786Q38.67-38.964000000000006 36.49-39.239399999999996 34.31-39.525 32.23-39.525L32.23-39.525Q29.3-39.525 26.75-38.607 24.21-37.689 22.32-35.9754 20.43-34.251599999999996 19.34-31.7832 18.24-29.325 18.24-26.2242L18.24-26.2242Q18.24-24.276 18.75-22.4706 19.26-20.655 20.31-19.2576 21.35-17.85 22.91-16.9932 24.46-16.136400000000002 26.51-16.136400000000002L26.51-16.136400000000002Q27.91-16.136400000000002 29.39-16.513800000000003 30.87-16.881 31.93-17.7786L31.93-17.7786 32.08-20.6958 23.29-20.8386 23.73-32.0484Q29.19-32.232 34.64-32.3646 40.1-32.4972 45.63-32.7216L45.63-32.7216ZM91.77-36.006L91.77-36.006Q91.77-33.099000000000004 91.28-30.7224 90.78-28.356 89.72-26.367 88.66-24.3882 86.98-22.7154 85.29-21.032400000000003 82.91-19.5024L82.91-19.5024 91.63-3.6618 75.15-0.3774 69.51-16.2894 64.97-16.136400000000002 64.31-0.6018 48.56-0.6018Q48.74-9.1188 48.91-17.5542 49.07-25.9998 49.29-34.5168L49.29-34.5168Q49.37-38.811 49.44-43.0338 49.51-47.2566 49.73-51.5508L49.73-51.5508Q52.29-52.519800000000004 54.79-53.1522 57.28-53.7846 59.78-54.1416 62.29-54.4986 64.87-54.6312 67.46-54.763799999999996 70.17-54.763799999999996L70.17-54.763799999999996Q74.34-54.763799999999996 78.24-53.580600000000004 82.14-52.4076 85.14-50.0514 88.15-47.705400000000004 89.96-44.1864 91.77-40.677600000000005 91.77-36.006ZM75.37-34.8126L75.37-34.8126Q75.37-36.3834 74.95-37.689 74.52-38.9946 73.7-39.9534 72.88-40.902 71.65-41.442600000000006 70.42-41.9832 68.77-41.9832L68.77-41.9832Q68.04-41.9832 67.35-41.891400000000004 66.65-41.7996 65.99-41.616L65.99-41.616 65.41-27.713400000000004 66.28-27.713400000000004Q67.86-27.713400000000004 69.49-28.1316 71.12-28.5396 72.42-29.3964 73.72-30.2532 74.54-31.599600000000002 75.37-32.946 75.37-34.8126ZM139.09-26.367L139.09-26.367Q139.09-22.9704 138.32-19.8186 137.55-16.656599999999997 136.1-13.8924 134.66-11.1282 132.59-8.8332 130.52-6.538200000000001 127.94-4.896 125.35-3.2538 122.31-2.3358 119.27-1.4178 115.87-1.4178L115.87-1.4178Q112.57-1.4178 109.59-2.2746 106.6-3.1416 104-4.691999999999999 101.4-6.2424 99.3-8.4252 97.19-10.608 95.71-13.2804 94.23-15.952800000000002 93.4-19.012800000000002 92.58-22.0728 92.58-25.398L92.58-25.398Q92.58-28.6518 93.35-31.773 94.12-34.884 95.56-37.648199999999996 97.01-40.4124 99.06-42.7278 101.11-45.0534 103.66-46.726200000000006 106.2-48.4092 109.17-49.34760000000001 112.13-50.2758 115.43-50.2758L115.43-50.2758Q120.74-50.2758 125.12-48.592800000000004 129.49-46.92 132.59-43.7988 135.68-40.677600000000005 137.38-36.2508 139.09-31.823999999999998 139.09-26.367ZM122.83-25.398L122.83-25.398Q122.83-27.009600000000002 122.37-28.5192 121.91-30.0288 121.03-31.212000000000003 120.15-32.385 118.85-33.1092 117.55-33.8436 115.87-33.8436L115.87-33.8436Q114.15-33.8436 112.79-33.211200000000005 111.44-32.5686 110.47-31.467000000000002 109.5-30.3654 108.98-28.8966 108.47-27.4176 108.47-25.7754L108.47-25.7754Q108.47-24.2046 108.91-22.6338 109.35-21.063 110.23-19.7982 111.11-18.5232 112.41-17.747999999999998 113.71-16.9626 115.43-16.9626L115.43-16.9626Q117.15-16.9626 118.52-17.646 119.9-18.3396 120.85-19.5126 121.8-20.6958 122.31-22.2258 122.83-23.7558 122.83-25.398ZM169.63-54.9882L188.09-53.4888 170.43-28.611 185.3-2.1624000000000003 168.31 0.8976000000000001 157.18-15.2388 156.59 1.6422 141.36 2.244 142.53-54.9882 159.59-54.009 158.28-37.128 169.63-54.9882ZM227.93-32.7216L228.37-7.6194Q226.65-5.4162 224.12-3.7740000000000005 221.59-2.1317999999999997 218.7-1.0506 215.81 0.0408 212.77 0.5813999999999999 209.73 1.122 206.98 1.122L206.98 1.122Q201.67 1.122 197.2-0.8262 192.74-2.7642 189.5-6.1812 186.25-9.5982 184.42-14.229 182.59-18.8598 182.59-24.2046L182.59-24.2046Q182.59-28.2744 183.51-32.181000000000004 184.42-36.0876 186.13-39.535199999999996 187.83-42.993 190.28-45.8898 192.74-48.7866 195.85-50.8776 198.96-52.9686 202.66-54.1212 206.36-55.284000000000006 210.57-55.284000000000006L210.57-55.284000000000006Q212.15-55.284000000000006 213.94-55.1514 215.73-55.0188 217.51-54.702600000000004 219.29-54.3864 220.97-53.8254 222.66-53.2644 224.05-52.4484L224.05-52.4484 223.02-38.1786Q220.97-38.964000000000006 218.79-39.239399999999996 216.61-39.525 214.53-39.525L214.53-39.525Q211.6-39.525 209.05-38.607 206.51-37.689 204.62-35.9754 202.73-34.251599999999996 201.64-31.7832 200.54-29.325 200.54-26.2242L200.54-26.2242Q200.54-24.276 201.05-22.4706 201.56-20.655 202.61-19.2576 203.65-17.85 205.21-16.9932 206.76-16.136400000000002 208.81-16.136400000000002L208.81-16.136400000000002Q210.21-16.136400000000002 211.69-16.513800000000003 213.17-16.881 214.23-17.7786L214.23-17.7786 214.38-20.6958 205.59-20.8386 206.03-32.0484Q211.49-32.232 216.94-32.3646 222.4-32.4972 227.93-32.7216L227.93-32.7216ZM263.05-53.4888L277.33-3.213 259.17-0.8262 256.97-9.2616 248.62-9.2616 246.79-0.8262 228.11-2.6928 242.69-52.4484 263.05-53.4888ZM250.16-20.6958L255.65-20.6958 252.87-33.6906 250.16-20.6958ZM315.01-54.4578L334.72-54.4578 331.35 0.3774 314.65 1.122 314.79-27.795 307.25-4.477799999999999 300.81-4.477799999999999 295.02-25.3266 294.95-1.122 278.03-0.6018 278.76-52.224000000000004 297.58-52.9686 305.05-28.2438 315.01-54.4578ZM338.31-53.866200000000006L372.07-53.866200000000006Q371.85-50.3574 371.67-46.92 371.48-43.482600000000005 371.19-39.9636L371.19-39.9636 355.66-39.147600000000004 355.3-34.4352 366.21-34.4352 365.41-22.8582 354.42-22.491 354.05-17.034 363.13-17.034 369.58-17.034Q369.36-12.9234 369.12-8.873999999999999 368.88-4.8144 368.7-0.7446L368.7-0.7446 337.13 0 338.31-53.866200000000006ZM410.82-19.869600000000002L410.82-19.869600000000002Q410.82-14.759400000000001 409.08-10.9242 407.34-7.0992 404.32-4.5594 401.29-2.0196 397.25-0.7446 393.2 0.5202 388.55 0.5202L388.55 0.5202Q386.76 0.5202 384.61 0.0408 382.47-0.44880000000000003 380.27-1.1729999999999998 378.08-1.9074000000000002 376.04-2.7438 374.01-3.5904000000000003 372.44-4.335L372.44-4.335 374.05-19.7268Q377.16-17.819399999999998 380.95-16.830000000000002 384.74-15.8406 388.4-15.8406L388.4-15.8406Q389.1-15.8406 390.09-15.8916 391.08-15.952800000000002 391.97-16.2282 392.87-16.513800000000003 393.49-17.0748 394.12-17.6358 394.12-18.676199999999998L394.12-18.676199999999998Q394.12-19.390200000000004 393.68-19.89 393.24-20.4 392.54-20.7162 391.85-21.032400000000003 390.97-21.195600000000002 390.09-21.369 389.25-21.4404 388.4-21.5118 387.67-21.5118 386.94-21.5118 386.5-21.5118L386.5-21.5118Q383.35-21.5118 380.77-22.6338 378.19-23.7558 376.34-25.755 374.49-27.7542 373.46-30.497999999999998 372.44-33.241800000000005 372.44-36.454800000000006L372.44-36.454800000000006Q372.44-40.861200000000004 374.18-44.3598 375.92-47.8482 378.83-50.296200000000006 381.74-52.7442 385.51-54.049800000000005 389.28-55.3554 393.31-55.3554L393.31-55.3554Q395.1-55.3554 397.01-55.2228 398.91-55.10040000000001 400.8-54.763799999999996 402.69-54.4272 404.48-53.896800000000006 406.27-53.376599999999996 407.89-52.5912L407.89-52.5912 406.49-37.4238Q404-38.2908 401.28-38.862 398.55-39.443400000000004 395.95-39.443400000000004L395.95-39.443400000000004Q395.47-39.443400000000004 394.72-39.423 393.97-39.412800000000004 393.15-39.3108 392.32-39.219 391.48-39.0354 390.64-38.851800000000004 389.98-38.525400000000005 389.32-38.2092 388.92-37.689 388.51-37.1688 388.55-36.454800000000006L388.55-36.454800000000006Q388.59-35.638799999999996 389.15-35.1288 389.72-34.629000000000005 390.62-34.3434 391.52-34.068 392.6-33.955799999999996 393.68-33.8436 394.74-33.8232 395.8-33.8028 396.72-33.8232 397.63-33.8436 398.22-33.7722L398.22-33.7722Q401.15-33.5784 403.49-32.4972 405.83-31.416 407.46-29.6208 409.09-27.8256 409.95-25.347 410.82-22.8582 410.82-19.869600000000002Z" transform="translate(-0.2900000214576721, 55.35540008544922)"/>
    </g>
    <g stroke="#000" stroke-width="6" stroke-linecap="round" stroke-linejoin="round" paint-order="stroke" data-gra-ignore-stroke="true">
      <path d="M45.63-32.7216L46.07-7.6194Q44.35-5.4162 41.82-3.7740000000000005 39.29-2.1317999999999997 36.4-1.0506 33.51 0.0408 30.47 0.5813999999999999 27.43 1.122 24.68 1.122L24.68 1.122Q19.37 1.122 14.9-0.8262 10.44-2.7642 7.2-6.1812 3.96-9.5982 2.12-14.229 0.29-18.8598 0.29-24.2046L0.29-24.2046Q0.29-28.2744 1.21-32.181000000000004 2.12-36.0876 3.83-39.535199999999996 5.53-42.993 7.98-45.8898 10.44-48.7866 13.55-50.8776 16.66-52.9686 20.36-54.1212 24.06-55.284000000000006 28.27-55.284000000000006L28.27-55.284000000000006Q29.85-55.284000000000006 31.64-55.1514 33.44-55.0188 35.21-54.702600000000004 36.99-54.3864 38.67-53.8254 40.36-53.2644 41.75-52.4484L41.75-52.4484 40.72-38.1786Q38.67-38.964000000000006 36.49-39.239399999999996 34.31-39.525 32.23-39.525L32.23-39.525Q29.3-39.525 26.75-38.607 24.21-37.689 22.32-35.9754 20.43-34.251599999999996 19.34-31.7832 18.24-29.325 18.24-26.2242L18.24-26.2242Q18.24-24.276 18.75-22.4706 19.26-20.655 20.31-19.2576 21.35-17.85 22.91-16.9932 24.46-16.136400000000002 26.51-16.136400000000002L26.51-16.136400000000002Q27.91-16.136400000000002 29.39-16.513800000000003 30.87-16.881 31.93-17.7786L31.93-17.7786 32.08-20.6958 23.29-20.8386 23.73-32.0484Q29.19-32.232 34.64-32.3646 40.1-32.4972 45.63-32.7216L45.63-32.7216ZM91.77-36.006L91.77-36.006Q91.77-33.099000000000004 91.28-30.7224 90.78-28.356 89.72-26.367 88.66-24.3882 86.98-22.7154 85.29-21.032400000000003 82.91-19.5024L82.91-19.5024 91.63-3.6618 75.15-0.3774 69.51-16.2894 64.97-16.136400000000002 64.31-0.6018 48.56-0.6018Q48.74-9.1188 48.91-17.5542 49.07-25.9998 49.29-34.5168L49.29-34.5168Q49.37-38.811 49.44-43.0338 49.51-47.2566 49.73-51.5508L49.73-51.5508Q52.29-52.519800000000004 54.79-53.1522 57.28-53.7846 59.78-54.1416 62.29-54.4986 64.87-54.6312 67.46-54.763799999999996 70.17-54.763799999999996L70.17-54.763799999999996Q74.34-54.763799999999996 78.24-53.580600000000004 82.14-52.4076 85.14-50.0514 88.15-47.705400000000004 89.96-44.1864 91.77-40.677600000000005 91.77-36.006ZM75.37-34.8126L75.37-34.8126Q75.37-36.3834 74.95-37.689 74.52-38.9946 73.7-39.9534 72.88-40.902 71.65-41.442600000000006 70.42-41.9832 68.77-41.9832L68.77-41.9832Q68.04-41.9832 67.35-41.891400000000004 66.65-41.7996 65.99-41.616L65.99-41.616 65.41-27.713400000000004 66.28-27.713400000000004Q67.86-27.713400000000004 69.49-28.1316 71.12-28.5396 72.42-29.3964 73.72-30.2532 74.54-31.599600000000002 75.37-32.946 75.37-34.8126ZM139.09-26.367L139.09-26.367Q139.09-22.9704 138.32-19.8186 137.55-16.656599999999997 136.1-13.8924 134.66-11.1282 132.59-8.8332 130.52-6.538200000000001 127.94-4.896 125.35-3.2538 122.31-2.3358 119.27-1.4178 115.87-1.4178L115.87-1.4178Q112.57-1.4178 109.59-2.2746 106.6-3.1416 104-4.691999999999999 101.4-6.2424 99.3-8.4252 97.19-10.608 95.71-13.2804 94.23-15.952800000000002 93.4-19.012800000000002 92.58-22.0728 92.58-25.398L92.58-25.398Q92.58-28.6518 93.35-31.773 94.12-34.884 95.56-37.648199999999996 97.01-40.4124 99.06-42.7278 101.11-45.0534 103.66-46.726200000000006 106.2-48.4092 109.17-49.34760000000001 112.13-50.2758 115.43-50.2758L115.43-50.2758Q120.74-50.2758 125.12-48.592800000000004 129.49-46.92 132.59-43.7988 135.68-40.677600000000005 137.38-36.2508 139.09-31.823999999999998 139.09-26.367ZM122.83-25.398L122.83-25.398Q122.83-27.009600000000002 122.37-28.5192 121.91-30.0288 121.03-31.212000000000003 120.15-32.385 118.85-33.1092 117.55-33.8436 115.87-33.8436L115.87-33.8436Q114.15-33.8436 112.79-33.211200000000005 111.44-32.5686 110.47-31.467000000000002 109.5-30.3654 108.98-28.8966 108.47-27.4176 108.47-25.7754L108.47-25.7754Q108.47-24.2046 108.91-22.6338 109.35-21.063 110.23-19.7982 111.11-18.5232 112.41-17.747999999999998 113.71-16.9626 115.43-16.9626L115.43-16.9626Q117.15-16.9626 118.52-17.646 119.9-18.3396 120.85-19.5126 121.8-20.6958 122.31-22.2258 122.83-23.7558 122.83-25.398ZM169.63-54.9882L188.09-53.4888 170.43-28.611 185.3-2.1624000000000003 168.31 0.8976000000000001 157.18-15.2388 156.59 1.6422 141.36 2.244 142.53-54.9882 159.59-54.009 158.28-37.128 169.63-54.9882ZM227.93-32.7216L228.37-7.6194Q226.65-5.4162 224.12-3.7740000000000005 221.59-2.1317999999999997 218.7-1.0506 215.81 0.0408 212.77 0.5813999999999999 209.73 1.122 206.98 1.122L206.98 1.122Q201.67 1.122 197.2-0.8262 192.74-2.7642 189.5-6.1812 186.25-9.5982 184.42-14.229 182.59-18.8598 182.59-24.2046L182.59-24.2046Q182.59-28.2744 183.51-32.181000000000004 184.42-36.0876 186.13-39.535199999999996 187.83-42.993 190.28-45.8898 192.74-48.7866 195.85-50.8776 198.96-52.9686 202.66-54.1212 206.36-55.284000000000006 210.57-55.284000000000006L210.57-55.284000000000006Q212.15-55.284000000000006 213.94-55.1514 215.73-55.0188 217.51-54.702600000000004 219.29-54.3864 220.97-53.8254 222.66-53.2644 224.05-52.4484L224.05-52.4484 223.02-38.1786Q220.97-38.964000000000006 218.79-39.239399999999996 216.61-39.525 214.53-39.525L214.53-39.525Q211.6-39.525 209.05-38.607 206.51-37.689 204.62-35.9754 202.73-34.251599999999996 201.64-31.7832 200.54-29.325 200.54-26.2242L200.54-26.2242Q200.54-24.276 201.05-22.4706 201.56-20.655 202.61-19.2576 203.65-17.85 205.21-16.9932 206.76-16.136400000000002 208.81-16.136400000000002L208.81-16.136400000000002Q210.21-16.136400000000002 211.69-16.513800000000003 213.17-16.881 214.23-17.7786L214.23-17.7786 214.38-20.6958 205.59-20.8386 206.03-32.0484Q211.49-32.232 216.94-32.3646 222.4-32.4972 227.93-32.7216L227.93-32.7216ZM263.05-53.4888L277.33-3.213 259.17-0.8262 256.97-9.2616 248.62-9.2616 246.79-0.8262 228.11-2.6928 242.69-52.4484 263.05-53.4888ZM250.16-20.6958L255.65-20.6958 252.87-33.6906 250.16-20.6958ZM315.01-54.4578L334.72-54.4578 331.35 0.3774 314.65 1.122 314.79-27.795 307.25-4.477799999999999 300.81-4.477799999999999 295.02-25.3266 294.95-1.122 278.03-0.6018 278.76-52.224000000000004 297.58-52.9686 305.05-28.2438 315.01-54.4578ZM338.31-53.866200000000006L372.07-53.866200000000006Q371.85-50.3574 371.67-46.92 371.48-43.482600000000005 371.19-39.9636L371.19-39.9636 355.66-39.147600000000004 355.3-34.4352 366.21-34.4352 365.41-22.8582 354.42-22.491 354.05-17.034 363.13-17.034 369.58-17.034Q369.36-12.9234 369.12-8.873999999999999 368.88-4.8144 368.7-0.7446L368.7-0.7446 337.13 0 338.31-53.866200000000006ZM410.82-19.869600000000002L410.82-19.869600000000002Q410.82-14.759400000000001 409.08-10.9242 407.34-7.0992 404.32-4.5594 401.29-2.0196 397.25-0.7446 393.2 0.5202 388.55 0.5202L388.55 0.5202Q386.76 0.5202 384.61 0.0408 382.47-0.44880000000000003 380.27-1.1729999999999998 378.08-1.9074000000000002 376.04-2.7438 374.01-3.5904000000000003 372.44-4.335L372.44-4.335 374.05-19.7268Q377.16-17.819399999999998 380.95-16.830000000000002 384.74-15.8406 388.4-15.8406L388.4-15.8406Q389.1-15.8406 390.09-15.8916 391.08-15.952800000000002 391.97-16.2282 392.87-16.513800000000003 393.49-17.0748 394.12-17.6358 394.12-18.676199999999998L394.12-18.676199999999998Q394.12-19.390200000000004 393.68-19.89 393.24-20.4 392.54-20.7162 391.85-21.032400000000003 390.97-21.195600000000002 390.09-21.369 389.25-21.4404 388.4-21.5118 387.67-21.5118 386.94-21.5118 386.5-21.5118L386.5-21.5118Q383.35-21.5118 380.77-22.6338 378.19-23.7558 376.34-25.755 374.49-27.7542 373.46-30.497999999999998 372.44-33.241800000000005 372.44-36.454800000000006L372.44-36.454800000000006Q372.44-40.861200000000004 374.18-44.3598 375.92-47.8482 378.83-50.296200000000006 381.74-52.7442 385.51-54.049800000000005 389.28-55.3554 393.31-55.3554L393.31-55.3554Q395.1-55.3554 397.01-55.2228 398.91-55.10040000000001 400.8-54.763799999999996 402.69-54.4272 404.48-53.896800000000006 406.27-53.376599999999996 407.89-52.5912L407.89-52.5912 406.49-37.4238Q404-38.2908 401.28-38.862 398.55-39.443400000000004 395.95-39.443400000000004L395.95-39.443400000000004Q395.47-39.443400000000004 394.72-39.423 393.97-39.412800000000004 393.15-39.3108 392.32-39.219 391.48-39.0354 390.64-38.851800000000004 389.98-38.525400000000005 389.32-38.2092 388.92-37.689 388.51-37.1688 388.55-36.454800000000006L388.55-36.454800000000006Q388.59-35.638799999999996 389.15-35.1288 389.72-34.629000000000005 390.62-34.3434 391.52-34.068 392.6-33.955799999999996 393.68-33.8436 394.74-33.8232 395.8-33.8028 396.72-33.8232 397.63-33.8436 398.22-33.7722L398.22-33.7722Q401.15-33.5784 403.49-32.4972 405.83-31.416 407.46-29.6208 409.09-27.8256 409.95-25.347 410.82-22.8582 410.82-19.869600000000002Z" transform="translate(-0.2900000214576721, 55.35540008544922)"/>
    </g>
    <defs>
      <filter id="text-effect-sticker-shadow-YKoLi-UhqHnwmQwawdS7F" filterUnits="objectBoundingBox" width="2" height="2" x="-0.2" y="-0.2">
        <feDropShadow dx="0" dy="4.2" stdDeviation="0" flood-color="#FF0052" flood-opacity="1"/>
        <feDropShadow dx="0" dy="0.5" stdDeviation="0" flood-color="#000" flood-opacity="1"/>
      </filter>
    </defs>
  </g>
</svg>